
        <svg xmlns="http://www.w3.org/2000/svg" xmlns:xlink="http://www.w3.org/1999/xlink" version="1.1" width="3161.0125365482436" 
        height="811.2044529603813" viewBox="0 0 3161.0125365482436 811.2044529603813">
			
			<g transform="scale(8.050626827412184) translate(10, 10)">
				<defs id="SvgjsDefs1001"></defs><g id="SvgjsG1007" featureKey="symbolFeature-0" transform="matrix(0.898014148684491,0,0,0.898014148684491,-5.721191021945486,-4.518948990772806)" fill="#262626"> <path xmlns="http://www.w3.org/2000/svg" d="m68.5 38.438h-14.207c-2.2578 0-4.3125 0.92578-5.8047 2.4141-1.4883 1.4883-2.4141 3.543-2.4141 5.8047v11.18c0 2.2578 0.92578 4.3125 2.4141 5.8047 1.4883 1.4883 3.543 2.4141 5.8047 2.4141h14.207c2.2578 0 4.3125-0.92578 5.8047-2.4141 1.4883-1.4883 2.4141-3.543 2.4141-5.8047v-11.18c0-2.2578-0.92578-4.3125-2.4141-5.8047-1.4883-1.4883-3.543-2.4141-5.8047-2.4141zm-1.1992-2.3984v-1.4219c0-0.17188-0.070312-0.32813-0.18359-0.44141-0.11328-0.11328-0.26953-0.18359-0.44141-0.18359h-4.2539v-6.0039c0.050781-0.039062 0.10156-0.085937 0.14453-0.12891 0.30078-0.30078 0.48438-0.71484 0.48438-1.1719s-0.1875-0.87109-0.48438-1.1719c-0.30078-0.30078-0.71484-0.48438-1.1719-0.48438s-0.87109 0.1875-1.1719 0.48438c-0.30078 0.30078-0.48438 0.71484-0.48438 1.1719s0.1875 0.87109 0.48438 1.1719c0.046875 0.046875 0.09375 0.089844 0.14453 0.12891v6.0039h-4.2539c-0.17188 0-0.32812 0.070312-0.44141 0.18359s-0.18359 0.26953-0.18359 0.44141v1.4219zm-23.621 11.215c-0.73828 0.074219-1.4023 0.41016-1.9062 0.91016-0.57031 0.57031-0.92578 1.3594-0.92578 2.2266v4.1328c0 0.86328 0.35547 1.6523 0.92578 2.2266 0.5 0.5 1.1641 0.83594 1.9062 0.91016zm35.434 10.402c0.73828-0.074219 1.4023-0.41016 1.9062-0.91016 0.57031-0.57031 0.92578-1.3594 0.92578-2.2266v-4.1328c0-0.86328-0.35547-1.6523-0.92578-2.2266-0.5-0.5-1.1641-0.83594-1.9062-0.91016zm-9.625-9.0273c0.49609 0 0.94922 0.20312 1.2773 0.53125s0.53125 0.78125 0.53125 1.2773v2.0703c0 0.49609-0.20312 0.94922-0.53125 1.2773s-0.78125 0.53125-1.2773 0.53125h-16.184c-0.49609 0-0.94922-0.20312-1.2773-0.53125s-0.53125-0.78125-0.53125-1.2773v-2.0703c0-0.49609 0.20312-0.94922 0.53125-1.2773s0.78125-0.53125 1.2773-0.53125zm-16.184-2.3984h16.184c1.1562 0 2.2109 0.47266 2.9688 1.2344 0.76172 0.76172 1.2344 1.8125 1.2344 2.9688v2.0703c0 1.1562-0.47266 2.2109-1.2344 2.9688-0.76172 0.76172-1.8125 1.2344-2.9688 1.2344h-16.184c-1.1562 0-2.2109-0.47266-2.9688-1.2344-0.76172-0.76172-1.2344-1.8125-1.2344-2.9688v-2.0703c0-1.1562 0.47266-2.2109 1.2344-2.9688 0.76172-0.76172 1.8125-1.2344 2.9688-1.2344zm-43.699 13.543c-0.1875-0.89453-1.25-1.2578-1.9492-0.67188-0.33203 0.28516-0.48438 0.72266-0.39453 1.1523 0.16406 0.80469 0.35156 1.6016 0.5625 2.3984 0.23438 0.88672 1.3359 1.1914 1.9961 0.55078 0.3125-0.30859 0.42969-0.73828 0.32031-1.1641-0.19922-0.75-0.375-1.5078-0.53125-2.2656zm-0.82812-9.2539c0.019531-0.97656-1.0664-1.5625-1.875-1.0156-0.32031 0.22266-0.51172 0.57031-0.51953 0.96094-0.019531 0.82031-0.015624 1.6445 0.011719 2.4609 0.035157 0.98047 1.1562 1.5039 1.9336 0.90234 0.30469-0.24219 0.47266-0.59766 0.46094-0.98438-0.027343-0.77344-0.027343-1.5547-0.011718-2.3281zm1.2539-9.207c0.10547-0.42578-0.023438-0.86328-0.33984-1.1641-0.66797-0.625-1.7539-0.3125-1.9844 0.57422-0.19922 0.80078-0.37891 1.5938-0.53906 2.4023-0.078125 0.41016 0.058593 0.82422 0.36719 1.1094 0.69531 0.63281 1.8047 0.26562 1.9844-0.65625 0.14844-0.76562 0.32031-1.5156 0.50781-2.2695zm3.293-8.6836c0.42969-0.83594-0.22656-1.8164-1.1641-1.7422-0.41406 0.035156-0.77734 0.27344-0.96875 0.64453-0.375 0.73047-0.73047 1.4688-1.0664 2.2188-0.17578 0.39453-0.12891 0.84375 0.125 1.1953 0.54688 0.74219 1.6836 0.62109 2.0625-0.21875 0.31641-0.71094 0.65234-1.4062 1.0078-2.0977zm64.105 49.473c-0.69141 0.62891-0.43359 1.7656 0.46094 2.0352 0.40625 0.11719 0.83203 0.023437 1.1484-0.25781 0.60938-0.55078 1.2031-1.1133 1.7812-1.6953 0.56641-0.57422 0.42188-1.5195-0.28906-1.9023-0.47266-0.24219-1.0312-0.16016-1.4102 0.21484-0.55078 0.55078-1.1094 1.0859-1.6875 1.6055zm-7.5664 5.3906c-0.44922 0.25-0.68359 0.75-0.59766 1.2578 0.14844 0.8125 1.0391 1.2344 1.7617 0.83594 0.71875-0.39844 1.4219-0.81641 2.1172-1.2539 0.73047-0.46484 0.74609-1.5156 0.03125-2.0039-0.39453-0.26562-0.90625-0.27344-1.3125-0.019531-0.65625 0.41406-1.3242 0.80859-2.0039 1.1875zm-8.582 3.5586c-0.76953 0.22656-1.1094 1.1172-0.67578 1.7969 0.28906 0.44531 0.82812 0.64844 1.3398 0.50391 0.78906-0.22656 1.5703-0.47656 2.3477-0.74609 0.90234-0.31641 1.0898-1.5156 0.32031-2.0898-0.32031-0.23828-0.73438-0.30078-1.1133-0.17188-0.73438 0.25781-1.4727 0.48828-2.2188 0.70312zm-9.1641 1.5234c-0.95313 0.054687-1.4648 1.1445-0.89453 1.9102 0.24219 0.32422 0.61719 0.5 1.0234 0.48047 0.82031-0.042969 1.6406-0.10938 2.457-0.19922 0.4375-0.050781 0.79688-0.32422 0.97266-0.72656 0.35156-0.84766-0.32812-1.7539-1.2383-1.6523-0.76953 0.085937-1.5469 0.14453-2.3203 0.1875zm10.406-80.301c0.65625 0.20703 1.3438-0.17188 1.5234-0.83594 0.16016-0.61719-0.18359-1.25-0.79297-1.4453-0.78125-0.25-1.5703-0.47656-2.3633-0.68359-0.58594-0.15234-1.1875 0.15234-1.4102 0.71484-0.26562 0.67578 0.10938 1.418 0.8125 1.6055 0.75391 0.19531 1.4961 0.41016 2.2344 0.64844zm8.4648 3.8242c0.78125 0.46094 1.7617-0.070312 1.8086-0.97266 0.019531-0.44531-0.19922-0.85547-0.58594-1.0859-0.70313-0.42187-1.4258-0.82031-2.1523-1.2031-0.39453-0.20313-0.85547-0.17578-1.2227 0.070312-0.75 0.51172-0.6875 1.6328 0.11719 2.0547 0.6875 0.35937 1.3633 0.73828 2.0312 1.1367zm7.3945 5.6289c0.69531 0.66016 1.8438 0.27734 2.0078-0.66797 0.066406-0.39844-0.066406-0.78906-0.35547-1.0664-0.59375-0.56641-1.1992-1.1133-1.8242-1.6484-0.70703-0.59766-1.7891-0.21484-1.957 0.69922-0.074218 0.42188 0.074219 0.84375 0.40234 1.125 0.58984 0.50781 1.1641 1.0273 1.7305 1.5625zm5.9492 7.1367c0.51172 0.76562 1.6484 0.69922 2.0703-0.125 0.19141-0.38672 0.16797-0.83594-0.070313-1.1992-0.45312-0.6875-0.92188-1.3555-1.4102-2.0156-0.32031-0.42578-0.86328-0.58984-1.3633-0.41406-0.75781 0.27734-1.0352 1.1914-0.55859 1.8438 0.46484 0.625 0.90625 1.2617 1.3359 1.9102zm-30.844 39.555c0.26562 0.019531 0.53125 0.03125 0.80469 0.03125h10.465l1.6367 1.5781c0.019531 0.019531 0.039063 0.039062 0.0625 0.058594 0.23438 0.24609 0.35156 0.5625 0.35938 0.87891 0.007813 0.33203-0.10938 0.66797-0.35547 0.92578-0.027344 0.023437-0.050782 0.050781-0.074219 0.078125l-3.2891 3.4102c-0.019531 0.019532-0.039062 0.039063-0.058594 0.0625-0.24609 0.23438-0.5625 0.35156-0.87891 0.35938-0.33203 0.007813-0.66797-0.10938-0.92969-0.35547-0.023438-0.027343-0.050781-0.050781-0.078125-0.074218l-1.7969-1.7344c-0.41016-0.39453-1.0312-0.4375-1.4883-0.13672-1.043 0.69531-2.1484 1.2969-3.3047 1.8008-1.1445 0.5-2.3359 0.90234-3.5625 1.1953-0.55469 0.13281-0.92578 0.63281-0.91797 1.1797l0.046875 2.5781c0.007813 0.36328-0.13672 0.69922-0.375 0.94141-0.23438 0.24609-0.5625 0.39844-0.92188 0.40625l-4.8438 0.089844c-0.36328 0.007813-0.69531-0.13672-0.94141-0.375-0.24609-0.23438-0.39844-0.5625-0.40625-0.92188l-0.046875-2.5781c-0.007812-0.58203-0.43359-1.0625-0.98828-1.1562-1.2227-0.24609-2.4141-0.60547-3.5742-1.0586-1.1758-0.46484-2.3047-1.0234-3.3672-1.6758-0.49609-0.30469-1.125-0.19922-1.5039 0.21484l-1.7734 1.8398c-0.25 0.26172-0.58594 0.39453-0.92188 0.39844-0.33984 0.007813-0.68359-0.11719-0.94531-0.36719l-3.4688-3.3477c-0.019531-0.019531-0.039062-0.039062-0.0625-0.058593-0.23438-0.24609-0.35156-0.5625-0.35938-0.87891-0.007812-0.33203 0.10938-0.66797 0.35547-0.92969 0.027344-0.023437 0.050781-0.050781 0.074219-0.078125l1.7344-1.7969c0.39453-0.41016 0.4375-1.0312 0.13672-1.4883-0.69531-1.043-1.2969-2.1484-1.8008-3.3047-0.5-1.1445-0.90234-2.3359-1.1953-3.5625-0.13281-0.55469-0.63281-0.92578-1.1797-0.91797l-2.5625 0.042968c-0.03125-0.003906-0.0625 0-0.097656 0.003906-0.33203-0.015624-0.63672-0.15234-0.86719-0.375-0.23828-0.23047-0.39453-0.55078-0.40234-0.90234 0.003906-0.042969 0-0.085938-0.003907-0.12891l-0.085937-4.7344c-0.007813-0.36328 0.13672-0.69531 0.375-0.94141 0.23438-0.24609 0.5625-0.39844 0.92188-0.40625l2.5781-0.046875c0.58203-0.007812 1.0625-0.43359 1.1562-0.98828 0.24609-1.2227 0.60547-2.4141 1.0586-3.5742 0.46484-1.1758 1.0234-2.3047 1.6758-3.3672 0.30469-0.49609 0.19922-1.125-0.21484-1.5039l-1.8203-1.7578c-0.019532-0.019531-0.039063-0.039062-0.0625-0.058594-0.23438-0.24609-0.35156-0.5625-0.35938-0.87891-0.007813-0.33203 0.10938-0.66797 0.35547-0.92969 0.027343-0.023437 0.050781-0.050781 0.074218-0.078124l3.2891-3.4102c0.019531-0.019531 0.039062-0.039062 0.058593-0.0625 0.24609-0.23438 0.5625-0.35156 0.87891-0.35938 0.33203-0.007812 0.66797 0.10938 0.92969 0.35547 0.023438 0.027344 0.050782 0.050781 0.078125 0.074219l1.7969 1.7344c0.41016 0.39453 1.0312 0.4375 1.4883 0.13672 1.043-0.69531 2.1484-1.2969 3.3047-1.8008 1.1445-0.5 2.3359-0.90234 3.5625-1.1953 0.55469-0.13281 0.92578-0.63281 0.91797-1.1797l-0.046875-2.5781c-0.007813-0.36328 0.13672-0.69531 0.375-0.94141 0.23438-0.24609 0.5625-0.39844 0.92188-0.40625l4.8242-0.085937c0.03125 0.003906 0.0625 0 0.097657-0.003907 0.33203 0.015625 0.63672 0.15234 0.86719 0.37109 0.23828 0.23047 0.39453 0.55078 0.40234 0.90234-0.003906 0.042969 0 0.085937 0.003906 0.12891l0.046875 2.4727c0.007813 0.58203 0.43359 1.0625 0.98828 1.1562 0.60156 0.12109 1.2109 0.27344 1.8203 0.45703 0.33594 0.097657 0.67578 0.21094 1.0156 0.32813v0.98828c-2.4453 0.27734-4.6406 1.3945-6.3008 3.0508-0.42578 0.42578-0.81641 0.88672-1.1641 1.3828-4.1211 0.082032-7.8203 1.8242-10.473 4.5742-2.6562 2.7539-4.2617 6.5234-4.1875 10.656 0.074219 4.1328 1.8164 7.8477 4.5742 10.504 2.7539 2.6562 6.5234 4.2617 10.656 4.1875 1.3867-0.023438 2.7188-0.23438 3.9766-0.60938 1.1719-0.34766 2.2812-0.83203 3.3086-1.4336zm-34.367-44.012c-0.43359 0.49609-1.1875 0.54688-1.6836 0.11328-0.49609-0.43359-0.54688-1.1875-0.11328-1.6836 3.7539-4.2812 8.3398-7.8281 13.523-10.379 4.9961-2.4609 10.547-3.9922 16.449-4.3711 0.10938-0.007813 0.22266-0.015626 0.33984-0.019532l-1.0664-0.94141c-0.49609-0.4375-0.54297-1.1914-0.10937-1.6875 0.4375-0.49609 1.1914-0.54297 1.6875-0.10938l3.4648 3.0508c0.49609 0.4375 0.54297 1.1914 0.10938 1.6875l-3.0508 3.4648c-0.4375 0.49609-1.1914 0.54297-1.6875 0.10938-0.49609-0.4375-0.54297-1.1914-0.10938-1.6875l1.3398-1.5234c-0.24609 0.011718-0.50391 0.027343-0.76953 0.042968-5.5781 0.35547-10.824 1.8047-15.539 4.1289-4.9062 2.4141-9.2383 5.7656-12.785 9.8086zm23.168 67.578c-5.9922-1.1484-11.551-3.6055-16.348-7.082-4.3594-3.1602-8.0898-7.1562-10.934-11.77l2.0195 0.40625c0.64453 0.12891 1.2734-0.28906 1.4023-0.9375 0.12891-0.64453-0.28906-1.2734-0.9375-1.4023l-4.5273-0.91016c-0.64453-0.12891-1.2734 0.28906-1.4023 0.9375l-0.90625 4.5273c-0.12891 0.64453 0.28906 1.2734 0.9375 1.4023 0.64453 0.12891 1.2734-0.28906 1.4023-0.9375l0.27344-1.3672c2.9727 4.6875 6.8086 8.7539 11.27 11.984 5.0742 3.6758 10.961 6.2773 17.301 7.4922 0.64844 0.125 1.2734-0.30078 1.3984-0.94922 0.125-0.64844-0.30078-1.2734-0.94922-1.3984zm46.816-53.547c-0.21094-0.625 0.12891-1.3008 0.75391-1.5117 0.625-0.21094 1.3008 0.12891 1.5117 0.75391 0.59766 1.7812 1.082 3.6094 1.4453 5.4648 0.35938 1.8281 0.60156 3.7109 0.72266 5.6328 0.28516 4.4609-0.11328 8.8125-1.1094 12.949-0.8125 3.3867-2.0195 6.6211-3.5703 9.6523l1.7383-0.58594c0.625-0.21094 1.3008 0.12891 1.5117 0.75391s-0.12891 1.3008-0.75391 1.5117l-4.375 1.4766c-0.625 0.21094-1.3008-0.12891-1.5117-0.75391l-0.039062-0.11719c-0.039063-0.082031-0.066407-0.16797-0.085938-0.25781l-1.3516-4c-0.21094-0.625 0.12891-1.3008 0.75391-1.5117 0.625-0.21094 1.3008 0.12891 1.5117 0.75391l0.52344 1.5469c1.4492-2.8438 2.5742-5.8672 3.3281-9.0195 0.9375-3.9023 1.3125-8.0195 1.043-12.25-0.11328-1.8047-0.34766-3.582-0.6875-5.3242-0.34766-1.7812-0.80469-3.5039-1.3594-5.1641zm-21.543 11.598c0.86719 0 1.5742 0.70312 1.5742 1.5742 0 0.86719-0.70312 1.5742-1.5742 1.5742-0.86719 0-1.5742-0.70312-1.5742-1.5742 0-0.86719 0.70312-1.5742 1.5742-1.5742zm-12.238 0c0.86719 0 1.5742 0.70312 1.5742 1.5742 0 0.86719-0.70313 1.5742-1.5742 1.5742-0.86719 0-1.5742-0.70312-1.5742-1.5742 0-0.86719 0.70312-1.5742 1.5742-1.5742z" fill-rule="evenodd"></path></g><g id="SvgjsG1008" featureKey="nameFeature-0" transform="matrix(0.7363276745467374,0,0,0.7363276745467374,97.36886159197891,6.584828482625721)" fill="#fe1817"><path d="M8.114286 11.428571 l0 6.285714 l-7.257143 0 l0 -6.285714 l7.257143 0 z M9.257143 11.428571 l15.885714 0 l0 6.285714 l-8.457143 0 l0 22.285714 l-7.428571 0 l0 -28.571429 z M39.771428 40 l-7.485714 0 l0.057143 -28.571429 l7.428571 0 l0 28.571429 z M50.057142 11.428571 l7.428571 0 l0 28.571429 l-7.428571 0 l0 -11.142857 l-9.142857 0 l0 -6.285714 l9.142857 0 l0 -11.142857 z M65.771429 40 l0 -5.714286 l2.285714 0 l0 -17.142857 l-2.285714 0 l0 -5.714286 l12 0 l0 5.714286 l-2.285714 0 l0 17.142857 l2.285714 0 l0 5.714286 l-12 0 z M93.485714 40 l-7.428571 0 l0 -28.571429 l7.428571 0 l0 28.571429 z M111.771429 15.714286 l0 10 l-4.285714 4.285714 l4.285714 6.571429 l0 3.428571 l-6.857143 0 l-5.942857 -9.714286 l-4.342857 0 l0 -6.285714 l9.714286 0 l0 -6.285714 l-9.714286 0 l0 -6.285714 l12.857143 0 z M128.342857 40 l-3.142857 0 l-4.285714 -4.285714 l0 -24.285714 l7.428571 0 l0 28.571429 z M138.628572 11.428571 l7.428571 0 l0 24.285714 l-4.285714 4.285714 l-12.285714 0 l0 -6.285714 l9.142857 0 l0 -22.285714 z M180.342857 40 l-7.428571 0 l0 -24.285714 l4.285714 -4.285714 l3.142857 0 l0 28.571429 z M193.771429 11.428571 l4.285714 4.285714 l0 24.285714 l-7.428571 0 l0 -8 l-9.142857 0 l0 -6.285714 l9.142857 0 l0 -8 l-9.142857 0 l0 -6.285714 l12.285714 0 z M206.342857 40 l0 -5.714286 l2.285714 0 l0 -17.142857 l-2.285714 0 l0 -5.714286 l12 0 l0 5.714286 l-2.285714 0 l0 17.142857 l2.285714 0 l0 5.714286 l-12 0 z M251.771428 40 l-3.142857 0 l-4.285714 -4.285714 l0 -24.285714 l7.428571 0 l0 28.571429 z M252.914285 33.714286 l14.285714 0 l0 6.285714 l-14.285714 0 l0 -6.285714 z M282.342857 40 l-7.428571 0 l0 -24.285714 l4.285714 -4.285714 l3.142857 0 l0 28.571429 z M295.771429 11.428571 l4.285714 4.285714 l0 24.285714 l-7.428571 0 l0 -8 l-9.142857 0 l0 -6.285714 l9.142857 0 l0 -8 l-9.142857 0 l0 -6.285714 l12.285714 0 z M316.628571 40 l-7.428571 0 l0 -28.571429 l7.428571 0 l0 28.571429 z M334.914286 15.714286 l0 6.971429 l-3.028571 3.028571 l3.028571 3.028571 l0 6.971429 l-4.285714 4.285714 l-12.857143 0 l0 -6.285714 l9.714286 0 l0 -4.857143 l-9.714286 0 l0 -6.285714 l9.714286 0 l0 -4.857143 l-9.714286 0 l0 -6.285714 l12.857143 0 z M351.485714 22.571429 l14 0 l4.285714 4.285714 l0 8.857143 l-4.285714 4.285714 l-3.142857 0 l0 -11.142857 l-14 0 l-4.285714 -4.285714 l0 -8.857143 l4.285714 -4.285714 l3.142857 0 l0 11.142857 z M365.485714 11.428571 l4.285714 4.285714 l0 4.285714 l-5.428571 0 l-2.285714 -2.285714 l-9.428571 0 l0 -6.285714 l12.857143 0 z M361.2 33.714286 l0 6.285714 l-12.857143 0 l-4.285714 -4.285714 l0 -4.285714 l5.428571 0 l2.285714 2.285714 l9.428571 0 z"></path></g><g id="SvgjsG1009" featureKey="sloganFeature-0" transform="matrix(0.550265342304287,0,0,0.550265342304287,99.78941622069188,45.44677019711127)" fill="#202020"><path d="M4.34 20 l-2.14 0 l0 -14.92 l2.14 0 l0 14.92 z M17.068 7.18 l-1.74 -2.1 l2.82 0 l9.58 11.4 l0 -11.4 l2.2 0 l0 14.92 l-2.16 0 l-8.56 -10.26 l0 10.26 l-2.14 0 l0 -12.82 z M53.316 7.28 l-5.26 0 l0 12.72 l-2.12 0 l0 -12.72 l-5.32 0 l0 -2.2 l12.7 0 l0 2.2 z M66.184 14.02 l0 3.8 l9.2 0 l0 2.18 l-11.38 0 l0 -14.92 l10.5 0 l0 2.2 l-8.32 0 l0 4.52 q0.62 -0.36 1.38 -0.48 q0.56 -0.1 1.44 -0.1 l3.26 0 l0 2.22 l-3.26 0 q-0.82 0 -1.44 0.1 q-0.76 0.14 -1.38 0.48 z M97.232 20 l-10.46 0 l0 -14.92 l2.18 0 l0 12.74 l8.28 0 l0 2.18 z M118.18 20 l-10.46 0 l0 -14.92 l2.18 0 l0 12.74 l8.28 0 l0 2.18 z M130.808 20 l-2.14 0 l0 -14.92 l2.14 0 l0 14.92 z M155.876 7 l-1.4 1.64 q-0.82 -0.84 -1.96 -1.32 t-2.4 -0.48 q-1.64 0 -2.99 0.74 t-2.11 2.02 q-0.78 1.34 -0.78 2.98 q0 1.56 0.84 2.88 q0.8 1.24 2.15 1.97 t2.91 0.73 q1.1 0 2.11 -0.38 t1.81 -1.06 l0 -2.72 l-1.92 0 l-0.94 -2.16 l5.02 0 l0 5.8 q-1.14 1.28 -2.73 1.99 t-3.37 0.71 q-2.22 0 -4.08 -1.08 q-1.82 -1.04 -2.86 -2.86 q-1.08 -1.86 -1.08 -4.08 q0 -2.14 1.14 -3.94 q1.08 -1.72 2.93 -2.73 t3.97 -1.01 q1.66 0 3.16 0.64 q1.46 0.6 2.58 1.72 z M169.984 14.02 l0 3.8 l9.2 0 l0 2.18 l-11.38 0 l0 -14.92 l10.5 0 l0 2.2 l-8.32 0 l0 4.52 q0.62 -0.36 1.38 -0.48 q0.56 -0.1 1.44 -0.1 l3.26 0 l0 2.22 l-3.26 0 q-0.82 0 -1.44 0.1 q-0.76 0.14 -1.38 0.48 z M191.012 7.18 l-1.74 -2.1 l2.82 0 l9.58 11.4 l0 -11.4 l2.2 0 l0 14.92 l-2.16 0 l-8.56 -10.26 l0 10.26 l-2.14 0 l0 -12.82 z M228.94 7 l-1.4 1.64 q-0.82 -0.84 -1.96 -1.32 t-2.4 -0.48 q-1.64 0 -2.99 0.74 t-2.11 2.02 q-0.78 1.34 -0.78 2.98 q0 1.56 0.84 2.88 q0.8 1.24 2.15 1.97 t2.91 0.73 q1.44 0 2.68 -0.62 t2.06 -1.72 l1.34 1.82 q-1.14 1.28 -2.73 1.99 t-3.37 0.71 q-2.22 0 -4.08 -1.08 q-1.82 -1.04 -2.86 -2.86 q-1.08 -1.86 -1.08 -4.08 q0 -2.14 1.14 -3.94 q1.08 -1.72 2.93 -2.73 t3.97 -1.01 q1.66 0 3.16 0.64 q1.46 0.6 2.58 1.72 z M242.548 14.02 l0 3.8 l9.2 0 l0 2.18 l-11.38 0 l0 -14.92 l10.5 0 l0 2.2 l-8.32 0 l0 4.52 q0.62 -0.36 1.38 -0.48 q0.56 -0.1 1.44 -0.1 l3.26 0 l0 2.22 l-3.26 0 q-0.82 0 -1.44 0.1 q-0.76 0.14 -1.38 0.48 z M261.936 18.76 q0 -0.5 0.34 -0.85 t0.84 -0.35 q0.62 0 0.98 0.44 q0.3 0.38 0.3 0.97 t-0.28 1.26 t-0.78 1.23 q-0.54 0.62 -1.22 0.96 l-0.46 -0.6 q0.7 -0.54 0.99 -0.97 t0.29 -0.91 q-0.44 -0.06 -0.72 -0.39 t-0.28 -0.79 z M293.372 6.66 l-0.82 -1.84 l2.4 0 l7.18 15.18 l-2.44 0 l-0.98 -2.18 l-4.54 0 q-1.28 0 -2.3 0.24 q-0.9 0.22 -1.5 0.58 q-0.54 0.32 -0.72 0.66 l-0.38 0.7 l-2.36 0 z M294.972 15.62 l2.76 0 l-3.26 -6.3 l-3.3 7.14 q0.44 -0.38 1.34 -0.6 q1.02 -0.24 2.46 -0.24 z M319.32 20.34 q-2.1 0 -3.61 -0.73 t-2.3 -2.11 t-0.79 -3.3 l0 -9.12 l2.16 0 l0 9.12 q0 1.92 1.18 2.94 t3.36 1.02 t3.36 -1.02 t1.18 -2.94 l0 -9.12 l2.16 0 l0 9.12 q0 1.92 -0.79 3.3 t-2.3 2.11 t-3.61 0.73 z M349.208 7.28 l-5.26 0 l0 12.72 l-2.12 0 l0 -12.72 l-5.32 0 l0 -2.2 l12.7 0 l0 2.2 z M372.796 12.44 q0 -1.6 -0.82 -2.9 q-0.78 -1.26 -2.13 -1.98 t-2.93 -0.72 q-1.64 0 -2.99 0.74 t-2.11 2.02 q-0.78 1.34 -0.78 2.98 q0 1.56 0.84 2.88 q0.8 1.24 2.15 1.97 t2.92 0.73 t2.92 -0.76 t2.13 -2.04 q0.8 -1.34 0.8 -2.92 z M374.956 12.56 q0 2.16 -1.12 3.98 q-1.08 1.74 -2.93 2.77 t-3.99 1.03 q-2.22 0 -4.08 -1.08 q-1.82 -1.04 -2.86 -2.86 q-1.08 -1.86 -1.08 -4.08 q0 -2.14 1.14 -3.94 q1.08 -1.72 2.93 -2.73 t3.97 -1.01 q2.18 0 4.04 1.06 q1.82 1.04 2.88 2.82 q1.1 1.86 1.1 4.04 z M398.984 9.74 l-5.1 6.1 l-5.06 -6.1 l0 10.26 l-2.14 0 l0 -12.82 l-1.74 -2.1 l2.82 0 l6.1 7.32 l6.18 -7.32 l2.82 0 l-1.74 2.1 l0 12.82 l-2.14 0 l0 -10.26 z M418.512 6.66 l-0.82 -1.84 l2.4 0 l7.18 15.18 l-2.44 0 l-0.98 -2.18 l-4.54 0 q-1.28 0 -2.3 0.24 q-0.9 0.22 -1.5 0.58 q-0.54 0.32 -0.72 0.66 l-0.38 0.7 l-2.36 0 z M420.112 15.62 l2.76 0 l-3.26 -6.3 l-3.3 7.14 q0.44 -0.38 1.34 -0.6 q1.02 -0.24 2.46 -0.24 z M449.06 7.28 l-5.26 0 l0 12.72 l-2.12 0 l0 -12.72 l-5.32 0 l0 -2.2 l12.7 0 l0 2.2 z M461.928 14.02 l0 3.8 l9.2 0 l0 2.18 l-11.38 0 l0 -14.92 l10.5 0 l0 2.2 l-8.32 0 l0 4.52 q0.62 -0.36 1.38 -0.48 q0.56 -0.1 1.44 -0.1 l3.26 0 l0 2.22 l-3.26 0 q-0.82 0 -1.44 0.1 q-0.76 0.14 -1.38 0.48 z M485.496 7.28 l0 10.54 l3.38 0 q1.4 0 2.52 -0.72 q1.06 -0.7 1.66 -1.88 t0.6 -2.58 q0 -1.46 -0.57 -2.68 t-1.63 -1.94 q-1.14 -0.74 -2.62 -0.74 l-3.34 0 z M482.176 7.28 l-0.96 -2.2 l7.6 0 q1.98 0 3.62 1.02 q1.58 0.98 2.5 2.68 t0.92 3.7 q0 1.5 -0.59 2.97 t-1.63 2.57 q-1 1.08 -2.14 1.54 q-1.1 0.44 -2.62 0.44 l-5.52 0 l0 -12.72 l-1.18 0 z"></path></g>
			</g>
		</svg>
	